<?xml version="1.0" encoding="UTF-8"?>
<svg version="1.1" xmlns="http://www.w3.org/2000/svg" width="256" height="256">
<path d="M0 0 C1.01790619 0.00215515 2.03581238 0.0043103 3.08456421 0.00653076 C17.69363523 0.05620146 32.02575853 0.30709809 46.375 3.3125 C47.34985352 3.51117676 48.32470703 3.70985352 49.32910156 3.91455078 C97.7109774 14.03517194 141.69928269 35.9516877 177.375 70.3125 C178.3640332 71.26068604 178.3640332 71.26068604 179.37304688 72.22802734 C188.86130305 81.37247479 197.6012044 90.66984009 205.375 101.3125 C206.23306152 102.46355017 207.09113451 103.61459177 207.94921875 104.765625 C213.98736829 112.95680614 219.34595521 121.47054105 224.375 130.3125 C224.73948242 130.94430176 225.10396484 131.57610352 225.47949219 132.22705078 C247.08534998 169.97532572 256.85198095 212.74189997 256.6875 255.9375 C256.68534485 256.95540619 256.6831897 257.97331238 256.68096924 259.02206421 C256.63129854 273.63113523 256.38040191 287.96325853 253.375 302.3125 C253.07698486 303.77478027 253.07698486 303.77478027 252.77294922 305.26660156 C242.65232806 353.6484774 220.7358123 397.63678269 186.375 433.3125 C185.74287598 433.97185547 185.11075195 434.63121094 184.45947266 435.31054688 C175.31502521 444.79880305 166.01765991 453.5387044 155.375 461.3125 C154.22394983 462.17056152 153.07290823 463.02863451 151.921875 463.88671875 C143.73224019 469.92427396 135.22961724 475.30707302 126.375 480.3125 C125.66778809 480.7146875 124.96057617 481.116875 124.23193359 481.53125 C101.09654164 494.5566741 75.92537591 503.30551461 49.9375 508.625 C49.21860596 508.77235596 48.49971191 508.91971191 47.7590332 509.0715332 C33.08339502 511.86090125 18.55831162 512.66142619 3.64770508 512.62817383 C0.70811513 512.6250221 -2.2304558 512.64854926 -5.16992188 512.67382812 C-18.54306192 512.71848737 -31.43916711 511.51301542 -44.625 509.3125 C-46.33055054 509.03031616 -46.33055054 509.03031616 -48.07055664 508.74243164 C-91.33802759 500.97044532 -132.38793216 480.98345309 -165.625 452.3125 C-166.37007813 451.67828125 -167.11515625 451.0440625 -167.8828125 450.390625 C-181.38779833 438.57948485 -194.05918743 425.82889772 -204.625 411.3125 C-205.48149066 410.16255169 -206.33826433 409.01281411 -207.1953125 407.86328125 C-213.23534209 399.67315742 -218.61867614 391.16870382 -223.625 382.3125 C-224.0271875 381.60528809 -224.429375 380.89807617 -224.84375 380.16943359 C-237.8691741 357.03404164 -246.61801461 331.86287591 -251.9375 305.875 C-252.08485596 305.15610596 -252.23221191 304.43721191 -252.3840332 303.6965332 C-255.35789088 288.05024391 -255.99800362 272.57681954 -255.9375 256.6875 C-255.93534485 255.66959381 -255.9331897 254.65168762 -255.93096924 253.60293579 C-255.88129854 238.99386477 -255.63040191 224.66174147 -252.625 210.3125 C-252.42632324 209.33764648 -252.22764648 208.36279297 -252.02294922 207.35839844 C-241.90232806 158.9765226 -219.9858123 114.98821731 -185.625 79.3125 C-184.99287598 78.65314453 -184.36075195 77.99378906 -183.70947266 77.31445312 C-174.56502521 67.82619695 -165.26765991 59.0862956 -154.625 51.3125 C-153.47394983 50.45443848 -152.32290823 49.59636549 -151.171875 48.73828125 C-142.98224019 42.70072604 -134.47961724 37.31792698 -125.625 32.3125 C-124.91778809 31.9103125 -124.21057617 31.508125 -123.48193359 31.09375 C-100.34654164 18.0683259 -75.17537591 9.31948539 -49.1875 4 C-48.46860596 3.85264404 -47.74971191 3.70528809 -47.0090332 3.5534668 C-31.36274391 0.57960912 -15.88931954 -0.06050362 0 0 Z " fill="#F7C751" transform="translate(255.625,-0.3125)"/>
<path d="M0 0 C1.64037377 -0.00599278 3.28074474 -0.01280004 4.92111206 -0.02035522 C9.35747757 -0.0379508 13.79376582 -0.04270801 18.23016286 -0.0439868 C21.00949791 -0.04541315 23.78881362 -0.049692 26.56814384 -0.05498123 C36.28648997 -0.07346354 46.00478141 -0.08165452 55.72314453 -0.08007812 C64.74524953 -0.07887874 73.76711454 -0.09994575 82.78915888 -0.13156545 C90.56363507 -0.15783001 98.33803339 -0.1684411 106.11255354 -0.16716731 C110.74305545 -0.16666045 115.3733441 -0.17218845 120.00380135 -0.19352341 C124.36652643 -0.21307706 128.72883865 -0.21291501 133.09157944 -0.19849014 C134.67969183 -0.19642164 136.26783124 -0.20098379 137.8558979 -0.21321106 C158.98457959 -0.36516241 177.00208078 5.28113448 192.61303711 20.08740234 C204.67831904 32.83356926 210.39073816 49.02322996 210.11694336 66.39379883 C209.47272207 83.74750988 202.09690413 98.2534452 189.71850586 110.29052734 C189.20288086 110.83837891 188.68725586 111.38623047 188.15600586 111.95068359 C177.26569417 122.5857536 160.33001168 127.40392581 145.57954407 127.42424011 C144.5542176 127.42763845 144.5542176 127.42763845 143.50817746 127.43110543 C141.23622833 127.43739444 138.96433964 127.43661937 136.69238281 127.43579102 C135.05566837 127.43878575 133.41895464 127.442189 131.78224182 127.44596863 C127.34810393 127.45478223 122.91398536 127.45714567 118.47983956 127.45778441 C115.70490778 127.45849658 112.92998085 127.46063408 110.15505028 127.46328163 C100.46078557 127.47252732 90.76653459 127.47661761 81.07226562 127.47583008 C72.05815046 127.47522995 63.04409526 127.48577103 54.02999526 127.50157374 C46.27346464 127.51468366 38.51695353 127.52001251 30.76041192 127.51937467 C26.13566139 127.51912063 21.51096416 127.52191917 16.88622475 127.53255272 C12.53184553 127.54229159 8.17756991 127.54227352 3.82318687 127.53503609 C2.2334007 127.53399731 0.64360787 127.53631068 -0.94616699 127.54239655 C-22.65008552 127.62003832 -38.92077595 123.21642238 -55.03149414 107.97802734 C-68.12356181 94.27811367 -72.85146897 77.72173365 -72.55493164 59.22412109 C-71.91974994 42.84460876 -63.65625723 27.76967668 -51.86303711 16.66748047 C-44.17032589 9.9699054 -35.13675946 4.9507598 -25.28149414 2.29052734 C-24.07469498 1.95097015 -22.86789581 1.61141296 -21.62452698 1.26156616 C-14.51024486 -0.29399972 -7.24365056 -0.00529686 0 0 Z " fill="#E4A637" transform="translate(187.281494140625,277.70947265625)"/>
<path d="M0 0 C13.53486572 10.2236575 23.36235161 24.11650606 26.7109375 40.98046875 C29.334469 61.19456394 25.2928154 79.37576677 12.78515625 95.80859375 C1.40148072 109.44978242 -14.11729618 117.69707261 -31.8125 119.65234375 C-50.99229766 120.69778345 -67.67660534 116.44236871 -82.5703125 103.74609375 C-95.32602484 91.83483623 -104.33715397 76.38196613 -105.015625 58.5859375 C-105.36185415 38.96193075 -100.48530437 22.29448873 -86.8125 7.65234375 C-63.1668975 -16.25027617 -27.46300477 -19.27314442 0 0 Z " fill="#D69328" transform="translate(294.8125,119.34765625)"/>
<path d="M0 0 C1.77036976 -0.00571199 3.54073583 -0.01267944 5.31109619 -0.02079773 C10.09234487 -0.03865594 14.87340927 -0.03757422 19.65468121 -0.03185534 C23.66018167 -0.0287518 27.66564733 -0.0348691 31.67114282 -0.04089409 C41.12974999 -0.05491463 50.58826681 -0.0533996 60.046875 -0.04199219 C69.77113963 -0.03052277 79.49512807 -0.04457255 89.2193563 -0.07138866 C97.59768215 -0.09361937 105.97592177 -0.10016622 114.35427499 -0.09431225 C119.34519584 -0.09095793 124.33593987 -0.09325515 129.32683563 -0.11056328 C134.0252893 -0.12614754 138.7233375 -0.12195096 143.42177582 -0.10325813 C145.13446989 -0.0996033 146.84719478 -0.10258867 148.55986023 -0.11314392 C170.36835287 -0.23716404 189.29550066 6.0284402 205.28222656 21.40405273 C219.33268382 35.76907247 227.50506639 54.18681118 227.78222656 74.34155273 C227.52480205 93.09331937 220.99953805 111.43941432 208.28222656 125.40405273 C207.26708984 126.53907227 207.26708984 126.53907227 206.23144531 127.69702148 C193.61427786 141.07614932 175.23379499 149.84395635 156.77381039 150.5354805 C154.90818368 150.53994249 154.90818368 150.53994249 153.00486755 150.54449463 C152.3063935 150.54746575 151.60791944 150.55043687 150.8882795 150.55349803 C148.56572534 150.56211622 146.24322313 150.56368741 143.9206543 150.56518555 C142.2477762 150.56981869 140.57489915 150.57484401 138.90202332 150.58023071 C134.36858493 150.59331101 129.83516132 150.5997914 125.30170703 150.60424137 C122.46377603 150.60717985 119.62584899 150.61128615 116.78792 150.61574554 C107.89254191 150.62941048 98.99717298 150.63908141 90.10178512 150.64294744 C79.86381539 150.64742244 69.62597954 150.66494868 59.3880505 150.69394803 C51.45484475 150.71563211 43.52167647 150.72565533 35.58844143 150.72698855 C30.85963822 150.728032 26.13096103 150.73384073 21.40218925 150.75180817 C16.94763604 150.76840506 12.49330201 150.77038859 8.03872871 150.76166916 C6.4143019 150.76090489 4.78986272 150.76515973 3.16546631 150.77512741 C-20.49584472 150.91166813 -40.58573965 144.22613196 -57.71777344 127.40405273 C-58.41902344 126.72729492 -59.12027344 126.05053711 -59.84277344 125.35327148 C-73.88716845 110.78769775 -79.51868345 90.97694133 -79.16699219 71.16894531 C-78.4189958 51.56001213 -68.91315047 32.51822881 -54.60449219 19.01342773 C-38.15188769 4.97932204 -21.22650488 -0.06215447 0 0 Z M-53.76855469 35.66186523 C-64.29009053 50.46370524 -68.37444956 66.39869973 -66.71777344 84.40405273 C-63.51225936 102.55052227 -53.84793958 117.05073056 -39.10449219 127.87670898 C-27.50868968 135.29726345 -16.14756149 138.51889875 -2.45855713 138.5377655 C-1.43194902 138.54116384 -1.43194902 138.54116384 -0.38460135 138.54463083 C1.88424179 138.55090671 4.1530242 138.55014563 6.421875 138.54931641 C8.05873694 138.55231193 9.69559818 138.55571536 11.3324585 138.55949402 C15.76240507 138.56829873 20.19233231 138.57067066 24.6222868 138.5713098 C27.39504635 138.57202237 30.16780104 138.57416061 32.94055939 138.57680702 C42.62834483 138.58604913 52.31611655 138.59014338 62.00390625 138.58935547 C71.0106578 138.58875515 80.01734938 138.59930095 89.02408576 138.61509913 C96.7763903 138.62820867 104.52867531 138.63353793 112.28099084 138.63290006 C116.90237302 138.63264605 121.52370187 138.63544313 126.14507294 138.64607811 C130.49536156 138.6558166 134.84554648 138.65579917 139.19583893 138.64856148 C140.7840134 138.64752271 142.37219452 138.64983597 143.96035767 138.65592194 C156.01710243 138.69909764 167.69935868 138.51862881 178.53222656 132.65405273 C179.55606445 132.11844727 179.55606445 132.11844727 180.60058594 131.57202148 C185.53039049 128.93964738 190.0973453 126.1324015 194.28222656 122.40405273 C194.93191406 121.85749023 195.58160156 121.31092773 196.25097656 120.74780273 C204.67120212 113.10482877 210.39517145 102.33926832 213.28222656 91.40405273 C213.62640625 90.34959961 213.97058594 89.29514648 214.32519531 88.20874023 C218.24241513 72.63579288 214.60846476 56.94389472 207.09472656 43.09155273 C196.97525545 27.01816867 182.62172736 16.64451161 164.09550476 12.35922241 C156.74482726 10.92591686 149.32744777 11.10806557 141.87133789 11.11352539 C140.22919411 11.1075311 138.58705312 11.1007235 136.94491577 11.09317017 C132.50867659 11.07559309 128.0725147 11.07081826 123.63624406 11.06953859 C120.85707894 11.06811155 118.07793312 11.06383148 115.29877281 11.05854416 C105.58157491 11.04007023 95.86443168 11.0318701 86.1472168 11.03344727 C77.12450312 11.03464745 68.10202912 11.01356245 59.07937604 10.98195994 C51.30404607 10.95570789 43.52879394 10.94508372 35.75342005 10.94635808 C31.12240603 10.94686516 26.49160518 10.94132396 21.86063576 10.92000198 C17.49954194 10.90046872 13.13886133 10.90059683 8.77775192 10.91503525 C7.18921865 10.917106 5.60065846 10.91252767 4.01217079 10.90031433 C-18.57763088 10.7380619 -38.74706474 18.05046323 -53.76855469 35.66186523 Z " fill="#FEFEFC" transform="translate(181.7177734375,266.595947265625)"/>
<path d="M0 0 C1.58142816 1.18345286 3.14410588 2.39235638 4.6875 3.625 C5.51765625 4.27984375 6.3478125 4.9346875 7.203125 5.609375 C21.80864102 17.88517681 31.61446664 36.63904811 33.6875 55.625 C35.28233589 77.17728223 29.97722457 97.98524115 15.6875 114.625 C15.19121094 115.26308594 14.69492187 115.90117187 14.18359375 116.55859375 C3.06364542 130.30445759 -14.96135004 139.84875706 -32.4375 142.3125 C-55.21827183 144.20085322 -76.48901796 139.79043357 -94.53515625 125.03515625 C-109.58473535 112.19317221 -120.17600456 94.53407246 -122.3125 74.625 C-123.97560086 51.84755775 -119.13383642 32.68300167 -104.74609375 14.4375 C-94.59952071 2.71112346 -82.03654221 -5.50618732 -67.3125 -10.375 C-66.48492187 -10.67277344 -65.65734375 -10.97054687 -64.8046875 -11.27734375 C-42.81457758 -18.07485636 -18.71066693 -12.61063759 0 0 Z M-95.125 21.5625 C-107.66299047 36.79361492 -111.54804535 54.34534439 -110.3125 73.625 C-109.67943329 77.78648266 -108.66146475 81.64262146 -107.3125 85.625 C-107.05726563 86.44871094 -106.80203125 87.27242188 -106.5390625 88.12109375 C-100.85579726 104.41485877 -88.30402024 116.70305954 -73.3125 124.625 C-55.41635567 132.77916241 -36.62823647 132.45161924 -18.25 126 C0.03293224 118.04437267 11.71692513 103.31531276 19.0703125 85.22265625 C24.7446663 68.21943525 22.40359239 50.4401768 15 34.375 C5.83950184 17.31357217 -8.91920501 6.07577191 -27.1796875 0.16796875 C-52.44944557 -6.26517479 -77.67707668 2.62232009 -95.125 21.5625 Z " fill="#FEFDFA" transform="translate(300.3125,108.375)"/>
</svg>
